<?xml version="1.0" standalone="no"?>
<!DOCTYPE svg PUBLIC "-//W3C//DTD SVG 20010904//EN"
 "http://www.w3.org/TR/2001/REC-SVG-20010904/DTD/svg10.dtd">
<svg version="1.0" xmlns="http://www.w3.org/2000/svg"
 width="525.000000pt" height="475.000000pt" viewBox="0 0 525.000000 475.000000"
 preserveAspectRatio="xMidYMid meet">

<g transform="translate(0.000000,475.000000) scale(0.100000,-0.100000)"
fill="#000000" stroke="none">
<path d="M2775 4211 c-26 -11 -60 -49 -52 -58 4 -3 15 1 24 9 35 31 153 -6
153 -47 0 -7 -12 -34 -27 -61 -24 -42 -27 -59 -26 -116 l2 -68 -58 0 -59 0 -6
128 c-4 70 -9 138 -12 151 -9 44 -26 6 -32 -71 -2 -40 -9 -76 -15 -79 -19 -13
-61 7 -68 32 -4 13 -13 37 -22 52 l-15 28 -6 -61 c-3 -33 -9 -87 -12 -120 l-6
-60 -49 0 -49 0 0 68 c0 60 -3 71 -25 92 -25 24 -26 24 -31 4 -3 -11 -14 -25
-24 -31 -15 -10 -19 -8 -24 13 -4 14 -4 35 0 46 4 13 -2 28 -17 44 -12 13 -17
24 -10 24 7 0 25 -14 40 -30 l28 -31 -5 30 c-3 22 0 33 12 37 13 5 11 10 -11
28 -15 11 -32 20 -37 18 -5 -2 -12 2 -16 9 -8 12 -25 10 -205 -24 -38 -7 -68
-19 -83 -34 -16 -17 -28 -21 -39 -15 -9 5 -27 6 -42 1 -14 -5 -63 -20 -108
-34 -45 -15 -98 -37 -118 -51 -20 -13 -41 -22 -46 -19 -5 4 -9 -1 -9 -9 0 -9
7 -16 16 -16 10 0 13 -6 10 -18 -4 -12 3 -27 19 -42 14 -13 25 -30 25 -39 0
-10 -11 -4 -33 17 -18 18 -41 32 -51 32 -10 0 -14 5 -11 11 4 6 13 8 21 5 8
-3 14 -1 14 4 0 26 -69 1 -126 -46 -26 -21 -48 -32 -58 -28 -9 3 -16 1 -16 -6
0 -6 6 -8 13 -4 9 5 9 4 0 -6 -6 -7 -24 -14 -39 -16 -15 -1 -34 -10 -43 -19
-15 -15 -15 -16 2 -9 31 11 67 -4 66 -29 l0 -22 -9 23 c-12 28 -53 29 -80 2
-25 -25 -31 -25 -23 -2 6 15 3 14 -17 -3 -46 -39 -124 -110 -145 -131 -92 -93
-145 -155 -158 -184 -8 -19 -38 -66 -66 -104 -86 -113 -88 -125 -11 -51 l73
70 -69 -82 c-39 -47 -71 -77 -75 -71 -7 10 -27 -44 -49 -132 -12 -47 -48 -131
-59 -140 -4 -3 -32 -36 -64 -73 -52 -62 -57 -73 -59 -120 -5 -131 -16 -207
-34 -225 -41 -41 -69 -308 -37 -358 14 -21 9 -77 -16 -214 -10 -53 -2 -220 10
-220 5 0 9 -5 9 -11 0 -5 -4 -7 -10 -4 -15 9 -12 -6 16 -97 15 -46 28 -87 29
-93 1 -5 12 -30 23 -55 12 -25 24 -65 28 -89 4 -23 13 -45 20 -48 8 -3 12 -9
9 -13 -4 -7 45 -31 70 -34 5 -1 23 -22 40 -47 16 -25 50 -64 75 -87 25 -23 40
-42 33 -42 -21 0 -95 74 -124 125 -16 28 -29 45 -29 39 0 -41 141 -207 168
-196 11 4 14 1 10 -10 -10 -26 37 -39 188 -53 77 -8 152 -19 168 -24 19 -8 25
-8 20 0 -12 19 29 -7 66 -43 19 -19 48 -51 63 -71 15 -20 45 -46 67 -57 21
-11 41 -28 45 -39 14 -46 40 -55 193 -68 320 -25 418 -7 550 103 114 95 140
123 183 190 22 34 49 64 60 67 11 3 42 -1 67 -9 26 -7 59 -14 74 -14 17 0 34
-10 47 -28 20 -25 20 -24 -1 18 -22 43 -23 57 -26 320 -2 151 -2 273 1 270 2
-3 7 -128 10 -279 2 -150 9 -276 13 -280 5 -3 15 -18 23 -33 27 -52 158 -201
221 -249 36 -29 84 -55 114 -64 63 -18 211 -22 381 -8 134 10 169 20 179 50 4
10 27 30 54 46 26 15 81 56 122 92 41 36 90 72 107 80 18 9 80 20 137 25 102
9 166 26 180 49 4 6 25 20 46 31 28 14 50 40 86 97 26 43 59 96 75 119 15 22
33 63 40 90 6 27 22 60 35 74 26 28 64 138 64 186 0 16 4 34 9 40 5 5 12 33
15 63 6 49 5 53 -8 41 -14 -11 -16 -8 -16 27 0 21 5 44 11 50 7 7 9 31 5 65
-14 119 -13 203 1 243 23 61 10 209 -21 246 -17 20 -25 45 -30 98 -3 39 -18
116 -32 172 -14 56 -23 103 -20 106 3 3 -25 39 -62 80 l-68 74 -22 121 -23
121 -59 75 c-33 41 -60 83 -60 93 0 10 -6 22 -13 26 -17 10 -48 58 -46 69 5
20 -16 45 -74 90 -81 62 -83 64 -70 64 6 0 25 -11 41 -25 41 -34 52 -31 17 5
-15 16 -41 32 -56 35 -16 4 -38 20 -50 36 -11 16 -40 43 -65 59 -24 17 -44 36
-44 43 0 18 -206 148 -245 154 -32 5 -50 23 -23 23 18 0 -24 40 -62 60 -94 48
-218 81 -302 81 -10 0 -18 6 -18 14 0 15 -48 33 -105 39 -22 3 -69 10 -104 17
-56 10 -67 10 -93 -6 -29 -16 -30 -16 -67 9 -40 28 -45 29 -76 17z m-615 -111
c0 -5 -2 -10 -4 -10 -3 0 -8 5 -11 10 -3 6 -1 10 4 10 6 0 11 -4 11 -10z m80
-51 c0 -3 -16 -1 -35 5 -27 8 -35 16 -35 34 l0 23 35 -28 c19 -15 35 -31 35
-34z m832 39 c-7 -7 -12 -8 -12 -2 0 6 3 14 7 17 3 4 9 5 12 2 2 -3 -1 -11 -7
-17z m-1021 -40 c-12 -33 -51 -41 -81 -16 l-24 19 27 -6 c22 -6 28 -3 36 18
10 26 44 41 49 21 2 -6 -2 -22 -7 -36z m894 -48 c-7 -30 -14 -47 -14 -37 -1
11 -10 32 -22 48 -20 29 -19 39 9 72 15 17 17 17 28 -5 10 -18 9 -35 -1 -78z
m-1024 75 c-18 -8 -38 -15 -45 -14 -15 1 46 28 64 28 8 0 0 -6 -19 -14z m1299
0 c12 -14 15 -14 31 1 10 9 22 13 27 10 15 -9 1 -55 -19 -61 -23 -8 -24 -23
-3 -46 23 -26 35 -88 21 -110 -17 -28 -22 -24 -24 22 -2 30 -11 49 -33 72 -19
20 -28 37 -24 47 9 20 9 31 0 58 -8 25 5 29 24 7z m153 -7 c23 -11 37 -23 31
-25 -15 -5 -84 25 -84 37 0 14 5 13 53 -12z m-319 -39 l-8 -24 -6 25 c-8 30
-2 46 12 32 6 -6 7 -20 2 -33z m-904 -15 l0 -36 73 7 c39 3 78 2 85 -3 9 -6 5
-9 -15 -10 -16 0 -33 -1 -38 -2 -6 -2 -36 -2 -67 -1 -56 1 -57 2 -56 30 1 15
-2 33 -6 40 -4 6 -1 11 8 11 12 0 16 -10 16 -36z m-330 -9 c0 -8 -73 -36 -78
-30 -3 2 10 11 29 19 36 16 49 19 49 11z m56 -28 c15 -13 23 -26 18 -30 -6 -3
-23 7 -38 24 -33 35 -19 39 20 6z m232 -32 c27 -8 24 -29 -4 -33 -18 -2 -64
50 -64 73 0 5 10 -1 23 -12 12 -11 32 -24 45 -28z m950 39 c39 -11 27 -33 -15
-28 -67 9 -84 14 -78 24 7 11 58 13 93 4z m372 -17 c0 -8 -9 -22 -20 -32 -18
-17 -20 -17 -15 -2 3 9 7 24 10 32 6 19 25 20 25 2z m-1405 -99 c25 -37 5 -35
-30 4 -18 20 -36 34 -39 30 -3 -3 -6 2 -6 12 0 16 3 15 30 -4 16 -12 36 -31
45 -42z m1575 46 c0 -8 -4 -12 -10 -9 -5 3 -10 10 -10 16 0 5 5 9 10 9 6 0 10
-7 10 -16z m-1300 -34 c0 -5 -5 -10 -11 -10 -5 0 -7 5 -4 10 3 6 8 10 11 10 2
0 4 -4 4 -10z m1159 -45 c0 -5 -6 1 -14 15 l-15 25 6 -30 c4 -16 3 -27 -1 -23
-10 9 -61 -25 -98 -65 -15 -17 -30 -28 -33 -25 -3 3 20 28 50 54 30 27 60 62
67 77 l13 28 13 -23 c7 -13 12 -27 12 -33z m-89 25 c0 -5 -4 -10 -9 -10 -6 0
-13 5 -16 10 -3 6 1 10 9 10 9 0 16 -4 16 -10z m156 -35 c-9 -13 -16 -31 -16
-39 0 -7 -7 -16 -15 -20 -11 -4 -15 -20 -15 -55 0 -69 -16 -73 -25 -6 -7 61 0
81 46 119 38 33 46 33 25 1z m-1746 -7 c15 -16 20 -35 20 -74 0 -38 6 -59 22
-79 l21 -28 -21 12 c-31 16 -45 48 -38 85 6 32 -10 67 -44 93 -13 11 -13 12 2
13 10 0 26 -10 38 -22z m64 16 c9 -3 30 -27 47 -51 l30 -46 -31 27 c-17 14
-35 26 -40 26 -4 0 -15 11 -24 25 -16 25 -11 30 18 19z m1826 -29 c0 -23 -18
-27 -29 -6 -18 32 -14 43 9 31 11 -6 20 -17 20 -25z m-2005 5 c10 -11 16 -22
14 -25 -7 -6 -78 28 -79 38 0 15 48 6 65 -13z m2185 -5 c11 -13 8 -13 -19 -4
-35 12 -40 19 -12 19 10 0 24 -7 31 -15z m-2500 -35 c0 -5 -5 -10 -11 -10 -5
0 -7 5 -4 10 3 6 8 10 11 10 2 0 4 -4 4 -10z m2509 -56 c-18 -22 -22 -11 -7
22 10 21 14 24 16 10 2 -9 -2 -24 -9 -32z m-1909 16 c0 -5 -4 -10 -10 -10 -5
0 -10 5 -10 10 0 6 5 10 10 10 6 0 10 -4 10 -10z m997 -12 c-3 -8 -6 -5 -6 6
-1 11 2 17 5 13 3 -3 4 -12 1 -19z m803 -2 c0 -3 -4 -8 -10 -11 -5 -3 -10 -1
-10 4 0 6 5 11 10 11 6 0 10 -2 10 -4z m40 -9 c0 -2 -10 -12 -21 -23 -22 -19
-22 -19 -10 4 10 18 31 31 31 19z m111 -59 c1 -7 1 -17 0 -21 -1 -5 3 -6 8 -2
10 6 37 -33 33 -47 -1 -5 4 -8 12 -8 17 0 39 -26 34 -41 -5 -15 -108 92 -108
114 0 19 19 24 21 5z m-2597 -15 c4 -10 4 -14 0 -10 -4 4 -14 1 -23 -6 -14
-10 -14 -10 -4 4 7 9 10 19 6 22 -3 4 -2 7 4 7 6 0 14 -8 17 -17z m2349 0 c-7
-2 -21 -2 -30 0 -10 3 -4 5 12 5 17 0 24 -2 18 -5z m-2110 -17 c17 -13 24 -56
9 -56 -8 0 -16 14 -40 63 -6 11 11 8 31 -7z m2043 -5 c-9 -10 -21 -31 -25 -47
-8 -30 -42 -59 -81 -68 -14 -3 -6 3 17 13 31 15 44 28 49 48 6 25 40 73 52 73
3 0 -3 -9 -12 -19z m218 -32 c35 -47 37 -53 22 -67 -15 -15 -16 -15 -16 4 0
11 -16 39 -35 61 -30 36 -35 53 -15 53 3 0 23 -23 44 -51z m-2414 28 c0 -2
-19 -21 -41 -42 -41 -40 -43 -33 -4 18 16 21 45 37 45 24z m-120 -29 c-12 -10
-19 -18 -14 -18 4 0 -19 -25 -51 -55 -33 -30 -61 -55 -62 -55 -1 0 7 17 19 38
31 53 90 110 111 109 17 -1 17 -3 -3 -19z m2810 -80 c0 -16 -3 -19 -11 -11 -6
6 -8 16 -5 22 11 17 16 13 16 -11z m-2314 -30 c58 -66 57 -77 -1 -18 -21 22
-34 40 -29 40 6 0 19 -10 30 -22z m2307 4 c10 -10 14 -22 10 -27 -5 -4 -3 -5
3 -2 11 6 32 -12 49 -42 6 -10 4 -12 -6 -6 -42 25 -68 49 -63 59 3 6 -20 -16
-51 -49 -32 -33 -48 -46 -37 -30 11 17 32 41 46 54 28 27 36 52 9 30 -15 -13
-15 -12 -2 9 17 27 21 27 42 4z m-2818 -12 c3 -5 1 -10 -4 -10 -6 0 -11 5 -11
10 0 6 2 10 4 10 3 0 8 -4 11 -10z m-175 -74 c0 -5 -7 -1 -15 10 -8 10 -14 24
-14 29 0 6 6 1 14 -9 8 -11 15 -24 15 -30z m2633 8 c-5 -14 -17 -15 -80 -10
-74 7 -74 7 -104 -25 -17 -18 -36 -46 -44 -63 -9 -21 -14 -25 -14 -13 -1 24
22 67 51 94 19 18 37 23 108 26 47 1 86 4 87 5 1 1 0 -5 -4 -14z m472 -49
c-25 -38 -33 -61 -16 -51 5 3 11 -3 14 -14 6 -22 -3 -26 -20 -9 -16 16 -60
-13 -73 -47 -5 -13 -12 -24 -14 -24 -9 0 6 33 32 73 14 20 29 37 33 37 5 0 20
18 35 41 14 22 28 39 30 36 3 -3 -6 -22 -21 -42z m-3074 8 c13 -16 12 -17 -3
-4 -10 7 -18 15 -18 17 0 8 8 3 21 -13z m91 -97 l21 -31 -36 34 c-21 19 -37
39 -37 44 0 14 28 -11 52 -47z m758 34 c0 -5 -4 -10 -10 -10 -5 0 -10 5 -10
10 0 6 5 10 10 10 6 0 10 -4 10 -10z m-612 -97 c-16 -2 -40 -2 -55 0 -16 2 -3
4 27 4 30 0 43 -2 28 -4z m2580 0 c-10 -2 -28 -2 -40 0 -13 2 -5 4 17 4 22 1
32 -1 23 -4z m79 -9 c-3 -3 -12 -4 -19 -1 -8 3 -5 6 6 6 11 1 17 -2 13 -5z
m-2987 -12 c0 -5 -7 -17 -15 -28 -14 -18 -14 -17 -4 9 12 27 19 34 19 19z
m-116 -37 c-4 -8 -8 -15 -10 -15 -2 0 -4 7 -4 15 0 8 4 15 10 15 5 0 7 -7 4
-15z m2255 13 c-2 -2 -17 -14 -34 -28 l-30 -25 24 28 c14 15 29 27 34 27 6 0
8 -1 6 -2z m1111 -18 c7 11 11 11 24 1 20 -17 21 -41 1 -41 -8 0 -15 7 -15 15
0 8 -6 12 -13 9 -8 -3 -20 3 -28 13 -13 17 -13 17 4 4 16 -12 20 -13 27 -1z
m-1509 -92 c11 -21 11 -22 -4 -9 -10 7 -17 17 -17 22 0 15 9 10 21 -13z m1576
-40 c-3 -8 -6 -5 -6 6 -1 11 2 17 5 13 3 -3 4 -12 1 -19z m-2442 -28 c-3 -5
-13 -10 -21 -10 -8 0 -12 5 -9 10 3 6 13 10 21 10 8 0 12 -4 9 -10z m1918 -7
c-18 -2 -48 -2 -65 0 -18 2 -4 4 32 4 36 0 50 -2 33 -4z m190 0 c-23 -2 -64
-2 -90 0 -26 2 -7 3 42 3 50 0 71 -1 48 -3z m-2915 -10 c-10 -2 -28 -2 -40 0
-13 2 -5 4 17 4 22 1 32 -1 23 -4z m2032 -3 c0 -5 -7 -10 -16 -10 -8 0 -12 5
-9 10 3 6 10 10 16 10 5 0 9 -4 9 -10z m-2320 -10 c0 -5 -5 -10 -11 -10 -5 0
-7 5 -4 10 3 6 8 10 11 10 2 0 4 -4 4 -10z m170 -24 c0 -8 -4 -18 -10 -21 -5
-3 -10 3 -10 14 0 12 5 21 10 21 6 0 10 -6 10 -14z m-273 -133 c-3 -10 -5 -4
-5 12 0 17 2 24 5 18 2 -7 2 -21 0 -30z m328 -3 c16 -16 24 -30 18 -30 -7 0
-21 14 -33 30 -12 17 -20 30 -18 30 3 0 17 -13 33 -30z m3195 26 c0 -3 -4 -8
-10 -11 -5 -3 -10 -1 -10 4 0 6 5 11 10 11 6 0 10 -2 10 -4z m259 -51 l0 -20
-9 20 c-5 11 -9 27 -9 35 -1 13 0 13 9 0 5 -8 9 -24 9 -35z m-3336 -12 c-7 -2
-19 -2 -25 0 -7 3 -2 5 12 5 14 0 19 -2 13 -5z m591 -3 c111 -25 171 -147 116
-237 -27 -44 -50 -57 -167 -92 -118 -35 -183 -65 -183 -86 0 -13 29 -15 190
-15 l190 0 0 -50 0 -50 -255 0 -255 0 0 48 c1 68 18 134 43 160 32 34 104 69
194 92 117 31 133 39 133 64 0 36 -23 57 -75 67 -62 12 -150 -3 -215 -35 l-50
-25 -25 37 c-14 20 -25 42 -25 49 0 15 69 52 130 69 53 15 199 17 254 4z m621
-12 c44 -24 98 -81 126 -135 34 -67 34 -177 -1 -246 -125 -249 -495 -180 -517
97 -10 125 48 233 151 283 44 21 62 24 131 20 47 -2 93 -10 110 -19z m1348 6
c55 -19 119 -84 149 -152 25 -59 28 -161 4 -215 -73 -176 -303 -232 -445 -110
-95 81 -124 236 -65 350 32 62 82 107 140 128 53 19 160 18 217 -1z m-583 -44
l0 -50 -182 -2 -183 -3 0 -50 0 -50 135 -5 c111 -4 141 -9 169 -25 47 -28 72
-65 78 -116 6 -56 -28 -124 -76 -156 -33 -22 -43 -23 -247 -23 -118 0 -214 2
-214 4 0 2 9 24 20 49 l20 46 176 3 c161 3 177 5 190 22 8 11 11 29 8 40 -14
47 -26 51 -202 56 l-167 5 -3 153 -3 152 241 0 240 0 0 -50z m-2356 -25 c-4
-8 -8 -15 -10 -15 -2 0 -4 7 -4 15 0 8 4 15 10 15 5 0 7 -7 4 -15z m3696 -5
c12 -23 5 -26 -16 -6 -16 17 -18 26 -4 26 5 0 14 -9 20 -20z m-3330 -29 c0 -6
-9 -8 -20 -6 -11 2 -20 0 -20 -5 0 -5 -21 -12 -47 -15 -83 -11 -90 -14 -117
-55 -26 -39 -27 -40 -86 -40 -49 0 -58 3 -54 15 4 10 20 15 46 15 40 0 80 30
93 70 3 11 14 21 23 23 33 9 182 7 182 -2z m68 -26 c-3 -3 -9 2 -12 12 -6 14
-5 15 5 6 7 -7 10 -15 7 -18z m2912 18 c-8 -3 -30 -19 -47 -36 -36 -34 -41
-31 -18 13 13 24 22 30 48 29 17 0 25 -3 17 -6z m345 -134 c8 -23 1 -34 -14
-24 -13 8 -15 45 -2 45 5 0 13 -9 16 -21z m-3772 -94 c-2 -6 -12 -11 -23 -11
-22 0 -27 12 -8 18 7 3 13 20 14 39 1 19 3 36 4 39 4 8 16 -74 13 -85z m3868
15 c6 0 9 -9 7 -20 -7 -43 -23 -18 -24 37 -1 33 1 42 3 21 2 -21 9 -38 14 -38z
m-3425 15 c-11 -8 -38 -15 -60 -15 -23 0 -46 -4 -52 -8 -20 -13 -34 -50 -34
-93 0 -40 1 -41 18 -26 10 10 29 17 43 17 23 0 22 -2 -16 -38 -22 -21 -54 -54
-71 -73 -17 -20 -38 -40 -47 -45 -19 -11 -177 -6 -177 6 0 4 38 11 85 15 80 7
87 9 115 42 27 31 30 40 30 105 0 64 3 75 27 100 24 25 33 28 92 28 60 -1 64
-2 47 -15z m3118 -181 c13 -19 38 -46 57 -60 29 -21 44 -24 118 -24 59 0 81
-3 71 -10 -8 -5 -51 -10 -95 -10 -91 0 -98 4 -178 109 -30 40 -35 51 -19 42
12 -6 32 -27 46 -47z m303 -6 c-3 -8 -6 -5 -6 6 -1 11 2 17 5 13 3 -3 4 -12 1
-19z m-3901 -15 c-10 -10 -19 5 -10 18 6 11 8 11 12 0 2 -7 1 -15 -2 -18z m37
-70 c-7 -2 -19 -2 -25 0 -7 3 -2 5 12 5 14 0 19 -2 13 -5z m3897 -3 c0 -5 -4
-10 -9 -10 -6 0 -13 5 -16 10 -3 6 1 10 9 10 9 0 16 -4 16 -10z m-1700 -86 c9
-10 10 -14 2 -12 -6 2 -23 -10 -37 -27 l-26 -30 22 43 c13 23 24 42 25 42 1 0
7 -7 14 -16z m-630 -90 c41 -27 130 -117 145 -145 12 -21 15 -97 16 -367 1
-381 3 -366 -73 -438 -49 -47 -205 -164 -218 -164 -19 0 -18 29 2 36 36 11
151 100 189 146 68 82 66 61 62 489 l-3 256 -30 44 c-16 24 -46 58 -67 74 -38
30 -40 30 -193 36 -85 3 -135 7 -110 9 l45 3 -40 7 -40 7 50 2 c66 2 169 12
174 17 11 10 69 2 91 -12z m990 6 c0 -6 37 -11 88 -12 72 -1 79 -2 42 -8 -39
-6 -34 -7 35 -8 55 -1 75 1 65 8 -10 7 20 10 95 11 61 0 124 2 140 4 48 6 616
-7 609 -14 -3 -3 -291 -10 -639 -16 l-634 -10 -52 -50 c-28 -27 -57 -64 -65
-82 -20 -47 -20 -649 0 -697 16 -40 125 -146 202 -198 32 -22 73 -40 99 -44
25 -3 45 -11 45 -16 0 -10 -79 -1 -119 14 -59 22 -236 171 -263 221 -15 28
-17 71 -18 376 l0 344 25 43 c13 23 52 65 86 93 l61 51 99 0 c59 0 99 -4 99
-10z m113 3 c-13 -2 -35 -2 -50 0 -16 2 -5 4 22 4 28 0 40 -2 28 -4z m-2248
-9 c38 -15 -15 -24 -143 -24 -73 0 -142 -5 -153 -10 -13 -8 -19 -7 -19 0 0 25
66 39 182 40 64 0 124 -3 133 -6z m1402 -131 c-3 -10 -5 -4 -5 12 0 17 2 24 5
18 2 -7 2 -21 0 -30z m-1362 8 c-6 -6 -75 -11 -155 -13 -80 -2 -154 -7 -164
-12 -14 -7 -17 -6 -12 3 5 7 18 16 30 21 30 12 313 13 301 1z m1065 -6 c16 -8
42 -31 57 -52 l28 -36 3 -296 c2 -210 -1 -303 -9 -323 -13 -31 -120 -135 -183
-177 l-40 -26 -267 3 c-364 3 -389 18 -39 23 l275 4 45 27 c49 29 145 120 166
159 10 18 13 87 14 288 0 377 0 377 -190 396 -67 7 -124 16 -127 19 -4 3 49 6
116 6 89 0 130 -4 151 -15z m2108 6 c15 -9 -511 -21 -926 -21 -378 0 -372 4
-372 -230 0 -91 -4 -139 -10 -135 -13 8 -13 -228 0 -276 12 -44 135 -180 187
-205 34 -17 68 -19 308 -22 l270 -4 24 26 c14 14 28 26 33 26 16 0 -56 -61
-81 -68 -14 -4 -146 -7 -292 -7 l-266 0 -57 44 c-86 67 -154 146 -162 189 -4
20 -4 155 -1 300 8 287 12 311 68 363 l31 29 617 0 c339 0 622 -4 629 -9z
m-583 -118 c19 -20 35 -40 35 -45 0 -4 123 -8 273 -8 271 0 274 0 293 -22 14
-16 14 -19 2 -10 -13 10 -79 12 -293 10 l-276 -3 -22 30 c-26 35 -46 55 -73
72 -18 11 -18 12 3 12 13 1 37 -14 58 -36z m-1217 -225 c1 -248 -4 -340 -19
-317 -14 22 -11 477 3 516 7 18 13 33 14 33 1 0 2 -105 2 -232z m1102 112 c27
-38 35 -40 210 -43 l145 -3 -166 -2 c-148 -2 -168 0 -182 16 -24 26 -47 87
-46 119 1 21 3 17 10 -15 4 -23 18 -56 29 -72z m-2285 51 l90 -8 -135 -4
c-291 -8 -449 -5 -438 9 12 14 324 16 483 3z m1982 -23 c-3 -7 -5 -2 -5 12 0
14 2 19 5 13 2 -7 2 -19 0 -25z m-2224 -58 c25 0 27 -2 13 -15 -8 -8 -30 -15
-49 -15 -52 0 -63 -7 -97 -59 l-30 -48 38 -42 c36 -40 40 -41 102 -42 36 -1
76 -4 90 -8 l25 -7 -25 -7 c-14 -3 -67 -7 -117 -8 -106 -2 -116 3 -144 69
l-19 43 39 58 c53 78 78 95 126 85 11 -2 33 -4 48 -4z m3171 -67 c48 -65 49
-67 36 -102 -7 -20 -22 -46 -33 -58 -19 -22 -28 -23 -155 -23 -102 0 -133 3
-130 13 3 8 39 13 121 15 l117 3 24 42 c14 23 24 53 23 67 -2 30 -26 62 -40
53 -6 -3 -7 -1 -4 4 7 12 -37 23 -87 23 -23 0 -39 -9 -59 -31 l-28 -32 -92 8
c-51 4 -121 9 -156 11 -120 5 -74 14 77 14 l152 0 32 30 c28 27 38 30 92 30
l61 -1 49 -66z m-792 -20 c31 -21 53 -27 127 -32 122 -9 125 -19 4 -13 -106 5
-113 8 -198 87 -36 34 -37 35 -5 11 19 -15 52 -38 72 -53z m472 -87 c15 -9 26
-26 26 -39 0 -21 -44 -97 -57 -97 -3 0 1 10 10 23 16 24 34 97 22 85 -5 -5
-14 1 -22 12 -28 40 -153 20 -153 -25 0 -6 -11 -17 -25 -23 -36 -17 -50 -15
-35 3 8 10 9 15 1 15 -6 0 -17 -13 -25 -29 -24 -46 -73 -81 -113 -81 -29 0
-44 8 -72 38 l-36 37 -123 -5 c-120 -5 -124 -6 -148 -33 -13 -15 -24 -24 -24
-20 0 4 -5 1 -10 -7 -5 -8 -10 -35 -10 -59 0 -38 6 -49 43 -88 69 -72 71 -73
296 -73 110 0 211 4 224 9 14 6 51 37 84 69 l58 60 90 6 c50 4 119 9 155 11
36 3 59 2 51 -1 -8 -4 -9 -9 -3 -13 5 -3 -33 -7 -87 -8 -191 -4 -198 -7 -264
-76 -72 -74 -79 -76 -340 -76 -210 -1 -216 0 -281 68 -35 36 -40 47 -42 93 -2
64 14 107 52 137 27 22 35 23 129 17 78 -5 105 -3 120 8 17 12 21 11 37 -8 9
-11 17 -17 18 -12 0 4 15 -3 34 -18 38 -29 61 -32 103 -14 31 14 44 28 40 43
-2 5 6 17 17 26 19 15 19 17 3 33 -9 10 -17 20 -17 24 0 4 56 7 124 6 99 -1
130 -4 150 -18z m-1177 -98 c-3 -7 -5 -2 -5 12 0 14 2 19 5 13 2 -7 2 -19 0
-25z m-607 -59 c0 -5 -13 6 -30 24 -16 19 -30 39 -30 43 1 12 60 -54 60 -67z
m1723 34 c-7 -2 -21 -2 -30 0 -10 3 -4 5 12 5 17 0 24 -2 18 -5z m-564 -114
c36 -30 80 -38 210 -40 83 -2 84 -2 31 -9 -80 -11 -180 -11 -220 0 -45 12 -70
54 -69 112 l1 43 8 -40 c5 -26 18 -48 39 -66z m-552 14 c-2 -16 -4 -5 -4 22 0
28 2 40 4 28 2 -13 2 -35 0 -50z m-1791 -3 c8 0 14 -4 14 -10 0 -15 -24 -12
-46 6 -17 14 -17 15 -1 10 10 -3 25 -6 33 -6z m442 -70 c24 -36 31 -50 15 -31
-15 19 -42 50 -60 69 -22 22 -27 32 -15 30 9 -2 36 -32 60 -68z m2826 45 c-10
-8 -23 -14 -29 -14 -5 0 -1 6 9 14 11 8 24 15 30 15 5 0 1 -7 -10 -15z m66 0
c0 -8 -4 -15 -9 -15 -13 0 -22 16 -14 24 11 11 23 6 23 -9z m-2170 -18 c0 -2
-10 -12 -22 -23 l-23 -19 19 23 c18 21 26 27 26 19z m-490 -23 c0 -2 -9 -4
-21 -4 -11 0 -18 4 -14 10 5 8 35 3 35 -6z m210 5 c0 -9 -138 -3 -149 7 -2 2
30 4 72 4 48 0 77 -4 77 -11z m65 1 c-3 -5 -12 -10 -18 -10 -7 0 -6 4 3 10 19
12 23 12 15 0z m-162 -27 c-13 -2 -35 -2 -50 0 -16 2 -5 4 22 4 28 0 40 -2 28
-4z m107 -3 c0 -5 -11 -10 -25 -10 -14 0 -25 5 -25 10 0 6 11 10 25 10 14 0
25 -4 25 -10z m1697 3 c-20 -2 -52 -2 -70 0 -17 2 0 4 38 4 39 0 53 -2 32 -4z
m-1860 -59 c-3 -3 -12 -4 -19 -1 -8 3 -5 6 6 6 11 1 17 -2 13 -5z m171 -1
c-10 -2 -28 -2 -40 0 -13 2 -5 4 17 4 22 1 32 -1 23 -4z m440 -123 c-75 -88
-169 -141 -243 -139 -28 1 -27 2 9 10 56 13 142 65 210 126 33 29 61 53 63 53
2 0 -15 -23 -39 -50z m602 19 c0 -6 -4 -7 -10 -4 -5 3 -10 11 -10 16 0 6 5 7
10 4 6 -3 10 -11 10 -16z m60 -23 c19 -19 65 -51 102 -70 36 -19 63 -37 60
-41 -4 -4 2 -6 13 -4 41 5 175 -13 168 -23 -11 -20 -163 -2 -226 25 -72 32
-197 147 -160 147 4 0 23 -16 43 -34z m-897 -43 c-7 -2 -19 -2 -25 0 -7 3 -2
5 12 5 14 0 19 -2 13 -5z m-85 -10 c-27 -2 -69 -2 -95 0 -27 2 -5 3 47 3 52 0
74 -1 48 -3z m1445 -30 c-18 -2 -48 -2 -65 0 -18 2 -4 4 32 4 36 0 50 -2 33
-4z m-1626 -9 c-3 -3 -12 -4 -19 -1 -8 3 -5 6 6 6 11 1 17 -2 13 -5z"/>
<path d="M2149 2613 c-41 -34 -59 -79 -59 -143 0 -120 90 -195 194 -160 75 24
117 156 78 243 -26 58 -70 87 -134 87 -36 0 -54 -6 -79 -27z"/>
<path d="M3563 2639 c-81 -17 -129 -87 -120 -176 10 -97 71 -163 151 -163 87
0 146 71 146 176 0 117 -74 185 -177 163z"/>
<path d="M3263 1953 c9 -2 25 -2 35 0 9 3 1 5 -18 5 -19 0 -27 -2 -17 -5z"/>
<path d="M3003 1530 c0 -30 2 -43 4 -27 2 15 2 39 0 55 -2 15 -4 2 -4 -28z"/>
<path d="M3768 1413 c7 -3 16 -2 19 1 4 3 -2 6 -13 5 -11 0 -14 -3 -6 -6z"/>
<path d="M3710 1395 c0 -8 2 -15 4 -15 2 0 6 7 10 15 3 8 1 15 -4 15 -6 0 -10
-7 -10 -15z"/>
<path d="M2419 4201 c-5 -46 -5 -46 38 -43 l41 4 7 -129 c10 -182 22 -184 18
-2 -4 160 -6 169 -50 169 -12 0 -28 3 -37 6 -9 3 -17 1 -17 -5z"/>
</g>
</svg>
